<?xml version="1.0" standalone="no"?>
<!DOCTYPE svg PUBLIC "-//W3C//DTD SVG 20010904//EN"
 "http://www.w3.org/TR/2001/REC-SVG-20010904/DTD/svg10.dtd">
<svg version="1.0" xmlns="http://www.w3.org/2000/svg"
 width="1681.000000pt" height="397.000000pt" viewBox="0 0 1681.000000 397.000000"
 preserveAspectRatio="xMidYMid meet">

<g transform="translate(0.000000,397.000000) scale(0.100000,-0.100000)"
fill="#000000" stroke="none">
<path d="M2922 3468 c-6 -21 -5 -38 1 -46 12 -15 10 -17 -21 -27 -19 -5 -25
-2 -29 15 -5 19 -26 25 -24 7 1 -4 1 -13 1 -20 0 -16 53 -37 71 -27 8 4 25 3
39 -2 l25 -10 -22 -15 c-24 -16 -32 -48 -11 -41 6 2 20 -4 30 -14 14 -14 16
-23 8 -38 -13 -25 -13 -30 5 -30 8 0 15 -5 15 -10 0 -17 -31 -24 -40 -10 -4 7
-13 9 -19 6 -14 -9 -14 -26 0 -26 6 0 17 -6 24 -14 12 -12 11 -15 -6 -19 -12
-3 -18 -10 -14 -16 3 -7 -2 -11 -14 -11 -10 0 -27 -3 -35 -6 -26 -10 1 -34 38
-34 27 -1 29 -2 12 -11 -17 -11 -41 -15 -134 -22 -80 -7 -70 -30 13 -30 38 0
53 -3 46 -10 -14 -14 -117 -22 -125 -9 -3 5 -26 7 -51 4 -27 -3 -45 -1 -45 6
0 11 33 22 73 22 15 0 27 5 27 11 0 6 -12 10 -27 9 -65 -5 -93 0 -93 15 0 20
-13 19 -33 -3 -21 -23 -21 -44 -1 -102 39 -117 96 -191 185 -243 216 -127 506
-32 602 198 28 68 39 162 28 234 -33 207 -204 350 -418 351 l-72 0 -9 -32z"/>
<path d="M2870 3450 c0 -5 5 -10 10 -10 6 0 10 5 10 10 0 6 -4 10 -10 10 -5 0
-10 -4 -10 -10z"/>
<path d="M2955 3260 c-3 -5 -2 -10 4 -10 5 0 13 5 16 10 3 6 2 10 -4 10 -5 0
-13 -4 -16 -10z"/>
<path d="M1395 2550 c-3 -5 -1 -10 4 -10 6 0 11 5 11 10 0 6 -2 10 -4 10 -3 0
-8 -4 -11 -10z"/>
<path d="M1388 2483 c7 -3 16 -2 19 1 4 3 -2 6 -13 5 -11 0 -14 -3 -6 -6z"/>
<path d="M2695 1730 c4 -6 11 -8 16 -5 14 9 11 15 -7 15 -8 0 -12 -5 -9 -10z"/>
<path d="M10785 1415 c-45 -23 -91 -80 -105 -131 -18 -64 -7 -136 34 -231 20
-45 36 -86 36 -92 0 -5 -18 -39 -40 -74 -54 -86 -77 -179 -61 -250 13 -60 56
-119 104 -143 66 -35 203 -12 246 40 18 21 37 20 69 -2 31 -22 86 -42 113 -42
16 0 19 8 19 58 0 57 -1 58 -34 70 -60 22 -61 31 -21 132 20 50 39 106 42 124
5 32 4 34 -33 40 -22 4 -48 10 -59 12 -18 4 -24 -3 -39 -53 -33 -103 -35 -107
-51 -93 -19 16 -95 148 -95 165 0 8 27 48 61 90 74 94 98 145 99 208 0 111
-79 187 -197 187 -32 0 -71 -7 -88 -15z m130 -99 c13 -13 27 -36 31 -50 7 -31
-22 -94 -70 -151 l-35 -40 -17 40 c-10 22 -19 68 -22 102 -4 59 -3 64 26 93
37 36 55 38 87 6z m-31 -582 c63 -95 63 -104 -3 -131 -67 -28 -119 24 -108
106 5 41 35 111 47 111 4 0 33 -39 64 -86z"/>
<path d="M7422 1389 c-44 -13 -108 -79 -121 -126 -6 -21 -11 -63 -11 -93 0
-91 32 -142 165 -272 64 -62 123 -125 131 -140 8 -15 14 -46 14 -68 0 -53 -42
-100 -90 -100 -41 0 -85 43 -99 97 l-11 41 -63 -5 c-34 -3 -63 -7 -64 -8 -9
-6 32 -126 53 -158 66 -101 248 -117 344 -31 69 62 87 158 49 261 -19 50 -39
75 -144 178 -132 129 -152 163 -142 237 7 54 31 78 78 78 42 0 76 -32 86 -80
l5 -26 61 11 c74 13 79 25 43 98 -48 97 -163 140 -284 106z"/>
<path d="M8495 1386 c-51 -19 -120 -92 -134 -142 -15 -52 -15 -566 0 -619 32
-116 161 -181 290 -145 51 14 115 73 134 123 11 29 15 66 13 122 l-3 80 -67 3
-68 3 0 -76 c0 -71 -2 -79 -29 -106 -16 -16 -39 -29 -51 -29 -29 0 -76 26 -84
45 -3 9 -6 142 -6 296 l0 280 25 24 c34 35 78 33 116 -4 26 -27 29 -36 29 -95
l0 -66 70 0 70 0 0 73 c-1 106 -42 182 -124 224 -42 22 -133 26 -181 9z"/>
<path d="M14642 1389 c-44 -13 -108 -79 -121 -126 -6 -21 -11 -63 -11 -93 0
-91 32 -144 166 -273 64 -62 122 -124 130 -139 8 -15 14 -46 14 -68 0 -33 -6
-48 -29 -71 -57 -57 -136 -23 -161 70 -10 37 -14 42 -33 37 -12 -3 -41 -6 -65
-6 l-43 0 7 -37 c18 -96 60 -157 128 -189 128 -60 280 -6 320 113 22 63 20
111 -5 180 -18 50 -38 74 -139 173 -129 126 -150 157 -150 223 0 62 29 97 80
97 43 0 77 -32 87 -80 l5 -26 61 11 c74 13 79 25 43 98 -48 97 -163 140 -284
106z"/>
<path d="M15445 1386 c-51 -19 -120 -92 -134 -142 -14 -50 -15 -566 -1 -615
17 -61 52 -102 109 -132 88 -44 183 -35 255 25 67 55 76 87 76 296 l0 182
-110 0 -110 0 0 -65 0 -65 40 0 40 0 0 -106 c0 -103 -1 -106 -29 -135 -16 -16
-39 -29 -51 -29 -29 0 -76 26 -84 45 -3 9 -6 142 -6 296 l0 280 25 24 c34 35
78 33 116 -4 26 -27 29 -36 29 -95 l0 -66 70 0 70 0 0 74 c0 97 -34 167 -102
209 -57 35 -143 45 -203 23z"/>
<path d="M3890 936 l0 -456 153 0 c144 0 156 2 204 25 59 30 96 78 114 148 25
101 -11 238 -72 274 -36 21 -36 29 -3 56 80 63 86 231 12 322 -56 67 -94 79
-260 83 l-148 4 0 -456z m260 309 c39 -20 50 -43 50 -104 0 -90 -37 -131 -120
-131 l-40 0 0 125 0 125 40 0 c23 0 54 -7 70 -15z m9 -370 c31 -16 61 -77 61
-125 0 -48 -30 -109 -61 -125 -15 -8 -48 -15 -74 -15 l-45 0 0 140 0 140 45 0
c26 0 59 -7 74 -15z"/>
<path d="M4470 935 l0 -455 200 0 200 0 0 65 0 65 -130 0 -130 0 0 130 0 130
95 0 95 0 0 65 0 65 -95 0 -95 0 0 130 0 130 130 0 130 0 0 65 0 65 -200 0
-200 0 0 -455z"/>
<path d="M4980 1325 l0 -65 75 0 75 0 0 -390 0 -390 70 0 70 0 0 390 0 390 75
0 75 0 0 65 0 65 -220 0 -220 0 0 -65z"/>
<path d="M5530 1325 l0 -65 75 0 75 0 0 -390 0 -390 70 0 70 0 0 390 0 390 75
0 75 0 0 65 0 65 -220 0 -220 0 0 -65z"/>
<path d="M6080 935 l0 -455 200 0 200 0 0 65 0 65 -130 0 -130 0 0 130 0 130
95 0 95 0 0 65 0 65 -95 0 -95 0 0 130 0 130 130 0 130 0 0 65 0 65 -200 0
-200 0 0 -455z"/>
<path d="M6590 935 l0 -455 70 0 70 0 0 171 0 170 52 -3 52 -3 41 -165 41
-165 72 -3 c54 -2 72 0 72 10 0 7 -23 96 -50 198 -48 180 -49 185 -31 205 41
45 55 88 59 189 6 134 -9 197 -57 245 -50 50 -98 61 -260 61 l-131 0 0 -455z
m289 301 c19 -17 21 -31 21 -128 0 -94 -3 -111 -20 -128 -24 -24 -55 -32 -106
-28 l-39 3 -3 154 -3 153 65 -4 c45 -3 71 -10 85 -22z"/>
<path d="M7840 935 l0 -455 200 0 200 0 0 65 0 65 -130 0 -130 0 0 130 0 130
95 0 95 0 0 65 0 65 -95 0 -95 0 0 130 0 130 130 0 130 0 0 65 0 65 -200 0
-200 0 0 -455z"/>
<path d="M8900 1028 c0 -231 4 -378 11 -403 35 -128 187 -191 314 -131 58 27
88 57 110 108 13 32 15 97 15 413 l0 375 -70 0 -70 0 0 -357 c0 -387 -2 -396
-54 -421 -32 -16 -69 -9 -96 18 -19 19 -20 35 -20 390 l0 370 -70 0 -70 0 0
-362z"/>
<path d="M9450 935 l0 -455 70 0 70 0 0 171 0 170 52 -3 52 -3 41 -165 41
-165 72 -3 c54 -2 72 0 72 10 0 7 -22 96 -49 197 l-49 184 28 36 c40 52 50 92
50 198 0 116 -13 170 -51 217 -43 51 -101 66 -266 66 l-133 0 0 -455z m289
301 c19 -17 21 -31 21 -128 0 -94 -3 -111 -20 -128 -24 -24 -55 -32 -106 -28
l-39 3 -3 154 -3 153 65 -4 c45 -3 71 -10 85 -22z"/>
<path d="M10030 935 l0 -455 200 0 200 0 0 65 0 65 -130 0 -130 0 0 130 0 130
95 0 95 0 0 65 0 65 -95 0 -95 0 0 130 0 130 130 0 130 0 0 65 0 65 -200 0
-200 0 0 -455z"/>
<path d="M11506 1373 c2 -10 35 -202 74 -428 39 -226 73 -423 76 -438 6 -28 7
-28 72 -25 l67 3 36 238 c20 130 38 239 40 242 5 5 79 -435 79 -467 0 -15 10
-18 69 -18 l69 0 12 68 c6 37 39 240 73 452 l63 385 -69 3 c-38 2 -71 2 -72 0
-2 -2 -18 -104 -35 -228 -17 -124 -34 -232 -37 -240 -3 -8 -23 93 -44 225 -21
132 -38 241 -38 243 -1 2 -34 2 -73 0 l-73 -3 -32 -230 c-18 -126 -32 -234
-33 -239 0 -5 -2 -7 -5 -4 -5 5 -75 443 -75 468 0 6 -33 10 -74 10 -65 0 -74
-2 -70 -17z"/>
<path d="M12340 935 l0 -455 200 0 200 0 0 65 0 65 -130 0 -130 0 0 130 0 130
95 0 95 0 0 65 0 65 -95 0 -95 0 0 130 0 130 130 0 130 0 0 65 0 65 -200 0
-200 0 0 -455z"/>
<path d="M12850 936 l0 -456 150 0 c168 0 201 8 258 63 51 48 65 90 66 187 1
99 -25 168 -75 197 -36 22 -36 28 0 59 84 70 78 260 -11 340 -55 51 -85 58
-240 62 l-148 4 0 -456z m260 309 c39 -20 50 -43 50 -104 0 -90 -37 -131 -120
-131 l-40 0 0 125 0 125 40 0 c23 0 54 -7 70 -15z m-1 -366 c58 -20 86 -117
56 -194 -20 -54 -54 -75 -120 -75 l-45 0 0 140 0 140 39 0 c21 0 52 -5 70 -11z"/>
<path d="M13430 935 l0 -455 128 0 c150 0 190 9 242 56 69 63 70 67 70 398 0
334 -2 343 -77 405 -52 43 -88 51 -235 51 l-128 0 0 -455z m279 299 l31 -26 0
-274 0 -275 -25 -24 c-20 -21 -34 -25 -85 -25 l-60 0 0 325 0 325 54 0 c44 0
60 -5 85 -26z"/>
<path d="M13980 935 l0 -455 200 0 200 0 0 65 0 65 -130 0 -130 0 0 130 0 130
95 0 95 0 0 65 0 65 -95 0 -95 0 0 130 0 130 130 0 130 0 0 65 0 65 -200 0
-200 0 0 -455z"/>
<path d="M15060 935 l0 -455 70 0 70 0 0 455 0 455 -70 0 -70 0 0 -455z"/>
<path d="M15850 935 l0 -455 70 0 70 0 2 293 3 292 98 -292 99 -293 74 0 74 0
0 455 0 455 -70 0 -70 0 -2 -302 -3 -302 -58 189 c-32 105 -74 241 -94 303
l-35 112 -79 0 -79 0 0 -455z"/>
<path d="M2518 1313 c12 -2 32 -2 45 0 12 2 2 4 -23 4 -25 0 -35 -2 -22 -4z"/>
<path d="M1395 821 c-6 -5 -25 -11 -44 -13 -19 -2 -36 -8 -38 -15 -5 -15 53
-43 91 -43 30 0 30 0 8 -15 -12 -9 -30 -15 -39 -13 -11 2 -18 -3 -18 -12 0 -8
11 -17 25 -18 13 -2 33 -10 44 -18 20 -14 20 -14 -6 -14 -28 0 -53 -23 -43
-40 3 -5 15 -10 26 -10 25 0 25 -30 0 -37 -30 -8 -13 -33 23 -33 29 -1 30 -1
12 -15 -11 -8 -29 -15 -41 -15 -22 0 -45 -17 -45 -33 0 -5 12 -6 28 -3 15 3
34 2 42 -3 18 -12 14 -15 -34 -27 -46 -11 -61 -34 -22 -34 59 0 8 -30 -76 -46
-46 -8 -51 -23 -7 -18 40 5 55 -5 32 -21 -21 -14 -138 -36 -156 -29 -7 2 -21
-2 -32 -10 -18 -14 -14 -15 45 -12 36 2 70 0 75 -4 6 -5 21 -10 35 -12 14 -2
-15 -9 -65 -14 -56 -7 -95 -8 -102 -2 -7 5 -22 6 -35 2 -35 -11 -92 -12 -100
0 -4 6 -11 6 -21 -2 -7 -7 -17 -9 -20 -5 -4 3 -7 2 -7 -3 0 -30 114 -142 176
-173 27 -13 58 -28 68 -33 10 -6 60 -10 110 -10 148 0 255 49 336 155 22 29
44 57 49 63 6 7 13 28 16 48 4 20 11 39 16 42 5 3 9 50 9 104 0 85 -4 110 -27
166 -33 83 -114 170 -194 208 -60 28 -79 31 -94 17z m75 -221 c0 -5 -5 -10
-11 -10 -5 0 -7 5 -4 10 3 6 8 10 11 10 2 0 4 -4 4 -10z m-98 -282 c-9 -9 -15
-9 -24 0 -9 9 -7 12 12 12 19 0 21 -3 12 -12z m-319 -134 c-21 -15 -69 -19
-78 -5 -6 11 16 17 63 18 30 1 31 0 15 -13z"/>
<path d="M910 281 c0 -25 15 -34 28 -18 8 9 6 16 -9 25 -16 11 -19 9 -19 -7z"/>
<path d="M995 280 c3 -5 11 -10 16 -10 6 0 7 5 4 10 -3 6 -11 10 -16 10 -6 0
-7 -4 -4 -10z"/>
</g>
</svg>
